<?xml version="1.0" standalone="no"?><!DOCTYPE svg PUBLIC "-//W3C//DTD SVG 1.1//EN"
  "http://www.w3.org/Graphics/SVG/1.1/DTD/svg11.dtd">
<svg t="1617595216147" class="icon" viewBox="0 0 1024 1024" version="1.1" xmlns="http://www.w3.org/2000/svg" p-id="2694"
     xmlns:xlink="http://www.w3.org/1999/xlink" width="200" height="200">
  <defs>
    <style type="text/css"></style>
  </defs>
  <path
    d="M405.333333 555.392V821.12l213.333334 60.970667V555.392l-77.397334 72.981333a42.666667 42.666667 0 0 1-58.538666 0L405.333333 555.392z m357.333334-200.597333A259.114667 259.114667 0 0 1 704 473.472v407.424l192-59.093333V313.792l-133.333333 41.024z m-504.853334-21.888L128 372.842667v508.053333l192-59.093333V473.493333a259.626667 259.626667 0 0 1-62.186667-140.586666z m5.077334-90.837334a258.986667 258.986667 0 0 1 67.861333-123.221333 253.717333 253.717333 0 0 1 362.496 0 259.392 259.392 0 0 1 72.106667 145.834667l160.768-49.472A42.666667 42.666667 0 0 1 981.333333 256v597.333333a42.666667 42.666667 0 0 1-30.122666 40.789334l-277.333334 85.333333a42.666667 42.666667 0 0 1-24.256 0.234667l-286.506666-81.856-265.237334 81.621333A42.666667 42.666667 0 0 1 42.666667 938.666667V341.333333a42.666667 42.666667 0 0 1 30.122666-40.789333l190.08-58.474667z m369.557333-63.36a168.384 168.384 0 0 0-240.896 0c-66.965333 67.989333-66.965333 178.496-1.130667 245.354667L512 538.688l120.96-114.048c66.453333-68.032 66.261333-178.133333-0.512-245.930667zM512 362.666667a64 64 0 1 1 0-128 64 64 0 0 1 0 128z"
    p-id="2695"></path>
</svg>
