<?xml version="1.0" standalone="no"?><!DOCTYPE svg PUBLIC "-//W3C//DTD SVG 1.1//EN"
  "http://www.w3.org/Graphics/SVG/1.1/DTD/svg11.dtd">
<svg t="1617678615411" class="icon" viewBox="0 0 1024 1024" version="1.1" xmlns="http://www.w3.org/2000/svg" p-id="7446"
     xmlns:xlink="http://www.w3.org/1999/xlink" width="200" height="200">
  <defs>
    <style type="text/css"></style>
  </defs>
  <path
    d="M528 0a16 16 0 0 1 16 16v80h16a16 16 0 0 1 16 16v80h64a16 16 0 0 1 16 16v32h16a16 16 0 0 1 16 16v48h32a16 16 0 0 1 16 16v80h16a16 16 0 0 1 16 16v576h176a16 16 0 0 1 0 32H80a16 16 0 0 1 0-32h208V416a16 16 0 0 1 16-16h16v-80a16 16 0 0 1 16-16h32v-48a16 16 0 0 1 16-16h16v-32a16 16 0 0 1 16-16h64V112a16 16 0 0 1 16-16h16V16a16 16 0 0 1 16-16z m208 992V432h-96v560h96z m-80-720H400v32a16 16 0 0 1 16 16v48a16 16 0 0 1-32 0v-32h-32v64h80a16 16 0 0 1 16 16v576h160V416a16 16 0 0 1 16-16h80v-64h-32v32a16 16 0 0 1-32 0v-48a16 16 0 0 1 16-16v-32zM416 432h-96v560h96V432z m80-128a16 16 0 0 1 16 16v624a16 16 0 0 1-32 0V320a16 16 0 0 1 16-16z m64 0a16 16 0 0 1 16 16v624a16 16 0 0 1-32 0V320a16 16 0 0 1 16-16zM368 496a16 16 0 0 1 16 16v416a16 16 0 0 1-32 0V512a16 16 0 0 1 16-16z m320 0a16 16 0 0 1 16 16v416a16 16 0 0 1-32 0V512a16 16 0 0 1 16-16z m-64-272H432v16h192v-16z m-80-96h-32v64h32V128z"
    p-id="7447"></path>
</svg>
